<svg xmlns="http://www.w3.org/2000/svg" viewBox="0 0 64 64">
  <defs>
    <linearGradient id="g" x1="0" x2="1" y1="0" y2="1">
      <stop offset="0" stop-color="#b7ff6a" stop-opacity="0.95" />
      <stop offset="1" stop-color="#6afcff" stop-opacity="0.85" />
    </linearGradient>
  </defs>
  <rect width="64" height="64" rx="14" fill="#0b0d10" />
  <rect x="5" y="5" width="54" height="54" rx="12" fill="rgba(255,255,255,0.06)" stroke="rgba(255,255,255,0.10)" />
  <path
    d="M46 24c-2.1-6.5-8.1-11-15.2-11C21.9 13 15 19.9 15 28.8 15 37.8 21.9 45 30.8 45c2.1 0 4.2-.4 6.1-1.2 4.1 2.2 8.8 2.7 13.4 1.3-5.4-.9-8.4-3.3-9.7-6.7 3.7-2.9 6-7.4 6-12.1 0-.7-.1-1.4-.2-2.1H48l6-5-8.4.1z"
    fill="url(#g)"
  />
</svg>

